<?xml version="1.0" standalone="no"?>
<!DOCTYPE svg PUBLIC "-//W3C//DTD SVG 20010904//EN"
 "http://www.w3.org/TR/2001/REC-SVG-20010904/DTD/svg10.dtd">
<svg version="1.0" xmlns="http://www.w3.org/2000/svg"
 width="1350.000000pt" height="1350.000000pt" viewBox="0 0 1350.000000 1350.000000"
 preserveAspectRatio="xMidYMid meet">
<metadata>
Created by potrace 1.10, written by Peter Selinger 2001-2011
</metadata>
<g transform="translate(0.000000,1350.000000) scale(0.100000,-0.100000)"
fill="#000000" stroke="none">
<path d="M4121 11257 c-8 -10 -12 -316 -13 -1093 l-3 -1079 -130 -5 c-147 -6
-197 -19 -272 -68 -74 -47 -120 -110 -157 -210 -19 -50 -22 -233 -6 -327 19
-106 27 -149 39 -200 28 -116 34 -142 41 -180 8 -41 22 -85 46 -143 13 -32 18
-42 69 -157 15 -33 36 -80 47 -105 11 -25 23 -52 28 -60 5 -8 18 -32 29 -52
11 -21 77 -113 146 -205 l125 -166 0 -507 0 -507 -140 -186 c-147 -196 -189
-267 -244 -414 -9 -24 -23 -61 -31 -83 -8 -22 -22 -58 -30 -80 -15 -39 -30
-81 -55 -150 -7 -19 -16 -55 -20 -80 -4 -25 -12 -72 -18 -105 -14 -76 -33
-238 -39 -332 -8 -112 32 -215 117 -301 82 -84 154 -109 345 -120 l110 -7 3
-1034 c1 -744 5 -1038 13 -1048 17 -20 1621 -20 1638 1 8 10 10 272 9 972 l-3
959 -645 5 c-355 3 -646 7 -647 8 -2 1 -3 26 -3 56 0 44 4 56 18 60 9 2 330 6
712 8 l695 3 6 -285 c10 -463 38 -871 75 -1077 8 -45 14 -92 14 -105 0 -37 46
-245 75 -339 8 -26 15 -52 15 -58 0 -26 72 -160 101 -189 l33 -32 518 0 517 0
34 33 c41 42 99 162 114 237 3 14 11 45 18 70 37 129 97 509 109 695 3 44 10
121 15 170 5 50 13 264 16 478 l7 387 412 -2 411 -3 3 -1033 2 -1032 178 2
177 3 3 1033 c2 813 5 1034 15 1037 6 2 187 9 401 14 282 8 393 8 403 0 10 -9
13 -202 15 -1048 l3 -1036 170 0 170 0 3 1749 c1 1273 5 1753 13 1763 9 10
100 13 485 13 261 0 475 -1 476 -2 2 -2 5 -795 8 -1763 l5 -1760 169 -3 c129
-2 171 1 178 10 4 7 8 2030 8 4494 0 3803 -2 4483 -14 4493 -9 8 -65 11 -177
9 l-164 -3 -5 -1755 -5 -1755 -465 -5 c-256 -3 -475 -2 -487 2 l-23 7 -2 1753
-3 1753 -170 0 -170 0 -3 -1081 c-2 -940 -4 -1083 -17 -1094 -11 -9 -48 -10
-167 -1 -117 8 -427 18 -641 21 -4 0 -6 46 -5 103 l3 102 315 5 315 5 0 970 0
970 -817 3 c-771 2 -818 1 -825 -15 -4 -10 -6 -448 -3 -973 l5 -955 309 -3
c208 -1 314 -6 323 -13 19 -16 18 -182 -1 -198 -9 -8 -126 -10 -412 -9 l-399
3 -7 410 c-4 226 -12 466 -19 535 -6 69 -14 175 -19 235 -4 61 -13 144 -20
185 -35 229 -66 398 -82 450 -6 19 -15 51 -19 70 -17 83 -80 218 -116 252
l-25 23 -511 3 c-366 2 -519 -1 -539 -9 -42 -17 -103 -120 -128 -214 -4 -16
-12 -41 -18 -55 -5 -14 -17 -61 -27 -105 -9 -44 -23 -108 -31 -142 -8 -34 -14
-74 -14 -88 0 -15 -7 -63 -14 -108 -39 -217 -66 -616 -73 -1090 l-6 -357 -711
2 -711 3 -5 1080 c-3 594 -9 1086 -13 1093 -12 18 -320 17 -336 -1z m3067
-1969 c8 -8 12 -55 12 -143 l0 -132 -387 -516 c-213 -284 -391 -513 -395 -509
-4 4 -9 167 -13 362 -3 195 -11 384 -17 420 -13 76 -42 139 -92 195 l-36 40 0
142 c0 104 3 143 13 146 6 3 212 6 457 6 335 1 449 -2 458 -11z m-1184 -594
c14 -14 16 -111 16 -923 0 -833 -1 -910 -17 -922 -21 -18 -301 -17 -424 0
-530 77 -954 314 -1265 708 -128 162 -198 289 -290 523 -68 175 -133 555 -104
609 11 21 12 21 1040 21 922 0 1030 -2 1044 -16z m3524 -6 c2 -10 -53 -93
-130 -195 -74 -98 -168 -223 -209 -279 -147 -200 -195 -261 -285 -359 -368
-405 -813 -702 -1287 -859 -182 -60 -493 -124 -707 -145 -136 -14 -765 -20
-797 -8 -13 5 -23 15 -23 24 0 9 71 111 157 227 86 116 193 261 238 321 89
121 488 651 773 1028 100 133 192 247 205 254 17 10 241 12 1042 10 952 -2
1020 -3 1023 -19z m50 -1980 c-2 -984 -6 -1342 -14 -1345 -6 -2 -65 63 -130
144 -66 81 -124 153 -130 158 -6 6 -26 30 -44 55 -69 91 -203 229 -335 345
-43 39 -101 90 -127 114 l-48 44 0 487 0 487 95 72 c52 40 129 111 172 159 43
48 99 109 124 137 26 27 80 88 120 135 41 47 87 99 102 115 16 17 63 76 105
133 47 63 83 102 94 102 17 0 18 -59 16 -1342z m-1190 3 c1 -113 -1 -208 -6
-213 -8 -8 -41 1 -72 22 -48 31 -185 107 -256 141 -97 47 -116 64 -82 74 13 4
52 21 88 38 36 16 89 40 118 53 124 57 162 76 168 85 3 6 13 9 22 7 15 -3 17
-27 20 -207z m-3829 116 c43 -30 98 -64 124 -76 25 -12 51 -28 57 -36 14 -17
5 -35 -17 -35 -8 0 -35 -13 -60 -30 -24 -16 -47 -30 -50 -30 -3 0 -31 -20 -61
-45 -54 -44 -77 -54 -84 -35 -5 16 3 340 8 340 3 0 41 -24 83 -53z m1444 -265
c14 -12 15 -111 16 -922 0 -808 -2 -911 -15 -925 -14 -14 -126 -15 -1039 -13
-826 2 -1027 6 -1037 16 -30 30 2 302 58 492 111 379 329 704 636 948 118 94
174 130 308 200 232 121 401 175 655 207 131 17 396 15 418 -3z m952 -2 c244
-27 403 -62 670 -145 233 -72 513 -212 720 -358 216 -153 522 -441 681 -642
104 -131 467 -617 495 -663 31 -52 59 -50 -1024 -51 -785 -1 -1007 2 -1026 12
-26 13 -115 123 -236 292 -77 107 -365 492 -446 595 -83 106 -371 489 -430
571 -30 42 -102 140 -161 219 -60 78 -108 148 -108 156 0 13 10 17 70 28 44 8
702 -3 795 -14z m-275 -1460 c138 -184 262 -348 275 -365 13 -16 65 -84 116
-150 51 -66 96 -122 99 -125 21 -16 30 -59 30 -147 0 -54 -4 -104 -8 -111 -7
-10 -107 -12 -468 -10 l-459 3 -3 103 -3 103 42 47 c90 103 98 145 98 587 1
348 4 409 22 403 4 -2 121 -154 259 -338z"/>
<path d="M2513 11240 c-42 -17 -100 -124 -136 -250 -35 -124 -72 -293 -80
-370 -3 -19 -9 -66 -15 -105 -21 -126 -41 -337 -54 -550 -19 -305 -19 -6147 0
-6445 13 -208 34 -418 54 -545 6 -38 12 -86 15 -105 5 -46 31 -180 49 -255 49
-198 85 -282 143 -341 l34 -34 669 0 668 0 0 975 0 975 -642 2 -643 3 -3 2544
c-2 2029 0 2546 10 2553 7 4 298 8 646 8 l632 0 -2 973 -3 972 -660 2 c-363 1
-670 -2 -682 -7z"/>
</g>
</svg>
